<?xml version="1.0" encoding="UTF-8" standalone="no"?>
<!DOCTYPE svg PUBLIC "-//W3C//DTD SVG 1.1//EN" "http://www.w3.org/Graphics/SVG/1.1/DTD/svg11.dtd">
<svg version="1.1" xmlns="http://www.w3.org/2000/svg" xmlns:xlink="http://www.w3.org/1999/xlink" preserveAspectRatio="xMidYMid meet" viewBox="-1.0000000000000382 -0.9999999999999964 643.9999999999999 644.0879020714265" width="640" height="640.09"><defs><path d="M28.18 407.76C17.81 407.76 9.39 399.35 9.39 388.97C9.39 378.6 17.81 370.19 28.18 370.19C86.54 370.19 553.45 370.19 611.82 370.19C622.19 370.19 630.6 378.6 630.6 388.97C630.6 399.35 622.19 407.76 611.82 407.76C495.09 407.76 86.54 407.76 28.18 407.76Z" id="f1pSEekpAh"></path><path d="M44.46 407.76C44.46 449.26 78.11 482.91 119.61 482.91C130.88 482.91 187.24 482.91 288.69 482.91L288.69 580.6C269.9 580.6 259.47 580.6 257.38 580.6C229.71 580.6 207.28 603.03 207.28 630.7C229.82 630.7 410.18 630.7 432.72 630.7C432.72 603.03 410.29 580.6 382.62 580.6C380.53 580.6 370.1 580.6 351.31 580.6L351.31 482.91C452.76 482.91 509.12 482.91 520.39 482.91C561.89 482.91 595.54 449.26 595.54 407.76C485.32 407.76 154.68 407.76 44.46 407.76Z" id="bQMzY6gAX"></path><path d="M569.11 194.02C562.7 151.3 526.01 119.7 482.82 119.7C469.43 119.7 456.68 122.74 445.25 128.2C433.82 122.74 421.06 119.7 407.67 119.7C391.78 119.7 376.78 123.99 363.83 131.52C350.89 123.99 335.89 119.7 320 119.7C304.11 119.7 289.11 123.99 276.17 131.52C263.22 123.99 248.22 119.7 232.33 119.7C218.94 119.7 206.18 122.74 194.75 128.2C183.32 122.74 170.57 119.7 157.18 119.7C135.59 119.7 115.62 127.6 100.25 140.84C84.87 154.08 74.1 172.65 70.89 194.02C69.13 205.76 60.32 264.48 44.46 370.19L595.54 370.19C581.45 276.23 572.64 217.51 569.11 194.02Z" id="a5NGdsV3se"></path><path d="M320 119.7C302.71 119.7 288.69 105.68 288.69 88.39C288.69 71.09 302.71 57.07 320 57.07C337.29 57.07 351.31 71.09 351.31 88.39C351.31 105.68 337.29 119.7 320 119.7Z" id="fceE1782V"></path><path d="M288.69 482.91L351.31 482.91L351.31 520.48L288.69 520.48L288.69 482.91Z" id="c1bWyKTVSO"></path><path d="M44.46 407.76C44.46 421.45 48.14 434.28 54.54 445.33C107.63 445.33 532.36 445.33 585.46 445.33C591.86 434.28 595.54 421.45 595.54 407.76C485.32 407.76 154.68 407.76 44.46 407.76Z" id="d7xErlApYO"></path><path d="M589.9 332.61L552.75 332.61C539.77 246.11 532.56 198.05 531.12 188.44C527.31 163.05 515.75 139.56 498.23 121.07C493.21 120.17 488.07 119.7 482.82 119.7C469.43 119.7 456.67 122.74 445.24 128.2C470.69 140.36 489.54 164.53 493.96 194.01C495.35 203.25 502.28 249.45 514.75 332.61L465.08 332.61C452.1 246.11 444.89 198.05 443.45 188.44C439.55 162.44 427.54 138.42 409.29 119.73C408.75 119.72 408.22 119.7 407.67 119.7C391.78 119.7 376.78 123.99 363.83 131.52C386.08 144.46 402.24 167.01 406.29 194.01C407.68 203.25 414.61 249.45 427.09 332.61L212.91 332.61C225.39 249.45 232.32 203.25 233.7 194.01C237.76 167.01 253.92 144.46 276.17 131.52C263.22 123.99 248.22 119.7 232.33 119.7C231.78 119.7 231.25 119.72 230.71 119.73C212.46 138.42 200.45 162.44 196.55 188.44C195.11 198.05 187.9 246.11 174.92 332.61L125.24 332.61C137.72 249.45 144.65 203.25 146.04 194.01C150.46 164.53 169.3 140.36 194.75 128.2C183.33 122.74 170.57 119.7 157.18 119.7C151.93 119.7 146.78 120.17 141.77 121.07C124.24 139.56 112.68 163.05 108.88 188.44C107.44 198.05 100.23 246.11 87.25 332.61L50.1 332.61L44.46 370.19L595.54 370.19L589.9 332.61Z" id="a4CKn1AkXS"></path><path d="M292.89 72.73C290.22 77.33 288.69 82.68 288.69 88.39C288.69 105.68 302.71 119.7 320 119.7C337.29 119.7 351.31 105.68 351.31 88.39C351.31 82.68 349.78 77.33 347.11 72.73C341.7 82.09 331.59 88.39 320 88.39C308.41 88.39 298.3 82.09 292.89 72.73Z" id="b1njoEoLmS"></path><path d="M603.63 360.79C588.49 259.89 580.08 203.83 578.4 192.62C576.48 179.79 572.09 167.68 565.36 156.65C563.76 157.63 550.93 165.46 549.32 166.43C554.74 175.32 558.27 185.06 559.82 195.41C561.48 206.43 569.75 261.56 584.63 360.79L528.48 360.79C513.35 259.89 504.94 203.83 503.26 192.62C499.82 169.74 488.28 148.82 470.74 133.72C469.54 132.68 468.31 131.69 467.06 130.72C472.2 129.65 477.46 129.09 482.82 129.09C503.98 129.09 524.5 137.87 539.13 153.17C540.48 151.87 551.35 141.49 552.7 140.19C534.55 121.2 509.07 110.31 482.82 110.31C469.77 110.31 457.15 112.87 445.24 117.91C433.44 112.94 420.67 110.31 407.67 110.31C392.42 110.31 377.38 113.94 363.83 120.85C359.54 118.66 355.09 116.79 350.53 115.27C356.86 108.1 360.71 98.69 360.71 88.39C360.71 69.2 347.36 53.08 329.45 48.81C330.08 35.3 337.65 23.02 349.58 16.46C348.67 14.82 341.43 1.65 340.52 0C322.6 9.85 311.31 28.43 310.67 48.78C292.71 53.01 279.3 69.15 279.3 88.39C279.3 98.69 283.14 108.1 289.47 115.27C284.91 116.79 280.46 118.65 276.17 120.84C262.62 113.94 247.58 110.3 232.33 110.3C219.33 110.3 206.56 112.93 194.76 117.91C182.85 112.87 170.23 110.3 157.18 110.3C134.04 110.3 111.65 118.62 94.11 133.72C76.58 148.82 65.03 169.74 61.6 192.62C59.92 203.83 51.51 259.89 36.37 360.79C31.46 360.79 28.72 360.79 28.18 360.79C12.64 360.79 0 373.44 0 388.97C0 404.51 12.64 417.15 28.18 417.15C28.92 417.15 34.86 417.15 35.61 417.15C40.29 459.36 76.17 492.3 119.61 492.3C122.05 492.3 134.28 492.3 156.29 492.3L156.29 473.51C134.28 473.51 122.05 473.51 119.61 473.51C86.54 473.51 59.11 448.97 54.54 417.15C107.63 417.15 532.37 417.15 585.46 417.15C580.89 448.97 553.46 473.51 520.39 473.51C497.37 473.51 382.26 473.51 175.07 473.51L175.07 492.3L279.3 492.3L279.3 571.2C266.15 571.2 258.84 571.2 257.38 571.2C224.58 571.2 197.89 597.89 197.89 630.7C197.89 631.32 197.89 634.45 197.89 640.09L442.11 640.09C442.11 634.45 442.11 631.32 442.11 630.7C442.11 597.89 415.42 571.2 382.62 571.2C381.16 571.2 373.85 571.2 360.7 571.2L360.7 492.3C456.51 492.3 509.74 492.3 520.39 492.3C563.83 492.3 599.71 459.36 604.39 417.15C605.14 417.15 611.08 417.15 611.82 417.15C627.36 417.15 640 404.51 640 388.97C640 373.44 627.36 360.79 611.82 360.79C611.82 360.79 609.09 360.79 603.63 360.79ZM298.08 492.3L341.92 492.3L341.92 571.2L298.08 571.2L298.08 492.3ZM382.62 589.99C401.83 589.99 417.98 603.37 422.23 621.3C401.78 621.3 238.21 621.3 217.76 621.3C222.02 603.37 238.16 589.99 257.37 589.99C282.42 589.99 357.57 589.99 382.62 589.99ZM341.92 88.39C341.92 100.47 332.09 110.3 320 110.3C307.91 110.3 298.08 100.47 298.08 88.39C298.08 76.3 307.91 66.47 320 66.47C332.09 66.47 341.92 76.3 341.92 88.39ZM257.48 133.27C257.3 133.42 257.11 133.56 256.93 133.72C239.39 148.82 227.85 169.74 224.42 192.62C222.73 203.83 214.33 259.89 199.19 360.79L130.52 360.79C145.4 261.56 153.67 206.43 155.32 195.4C161.09 156.98 193.47 129.09 232.33 129.09C240.91 129.09 249.41 130.52 257.48 133.27ZM80.18 195.41C85.94 156.98 118.33 129.09 157.18 129.09C162.54 129.09 167.8 129.65 172.94 130.71C171.69 131.69 170.46 132.68 169.26 133.72C151.72 148.82 140.18 169.74 136.74 192.62C135.06 203.83 126.65 259.89 111.52 360.79L55.37 360.79C68.6 272.59 76.87 217.46 80.18 195.41ZM28.18 398.37C23 398.37 18.79 394.15 18.79 388.97C18.79 383.79 23 379.58 28.18 379.58C44.61 379.58 126.8 379.58 274.73 379.58L274.73 360.79L218.18 360.79C233.07 261.56 241.34 206.43 242.99 195.4C248.76 156.98 281.14 129.09 320 129.09C358.85 129.09 391.24 156.98 397 195.4C397.12 196.19 397.71 200.15 398.78 207.26L417.36 204.48C416.29 197.36 415.7 193.41 415.58 192.62C412.15 169.74 400.6 148.81 383.07 133.72C382.89 133.56 382.7 133.42 382.52 133.27C390.59 130.52 399.09 129.09 407.67 129.09C446.53 129.09 478.91 156.98 484.67 195.4C486.32 206.43 494.59 261.56 509.48 360.79L440.81 360.79L420.15 223.06L401.57 225.84L421.81 360.79L293.52 360.79L293.52 379.58C484.5 379.58 590.6 379.58 611.82 379.58C617 379.58 621.21 383.79 621.21 388.97C621.21 394.15 617 398.37 611.82 398.37C495.09 398.37 86.54 398.37 28.18 398.37Z" id="a2wl1v4GW"></path></defs><g><g><use xlink:href="#f1pSEekpAh" opacity="1" fill="#d4ebf4" fill-opacity="1"></use><g><use xlink:href="#f1pSEekpAh" opacity="1" fill-opacity="0" stroke="#000000" stroke-width="1" stroke-opacity="0"></use></g></g><g><use xlink:href="#bQMzY6gAX" opacity="1" fill="#d4ebf4" fill-opacity="1"></use><g><use xlink:href="#bQMzY6gAX" opacity="1" fill-opacity="0" stroke="#000000" stroke-width="1" stroke-opacity="0"></use></g></g><g><use xlink:href="#a5NGdsV3se" opacity="1" fill="#ff7b7b" fill-opacity="0.5"></use><g><use xlink:href="#a5NGdsV3se" opacity="1" fill-opacity="0" stroke="#000000" stroke-width="1" stroke-opacity="0"></use></g></g><g><use xlink:href="#fceE1782V" opacity="1" fill="#feff9e" fill-opacity="1"></use><g><use xlink:href="#fceE1782V" opacity="1" fill-opacity="0" stroke="#000000" stroke-width="1" stroke-opacity="0"></use></g></g><g><use xlink:href="#c1bWyKTVSO" opacity="1" fill="#addbea" fill-opacity="1"></use><g><use xlink:href="#c1bWyKTVSO" opacity="1" fill-opacity="0" stroke="#000000" stroke-width="1" stroke-opacity="0"></use></g></g><g><use xlink:href="#d7xErlApYO" opacity="1" fill="#addbea" fill-opacity="1"></use><g><use xlink:href="#d7xErlApYO" opacity="1" fill-opacity="0" stroke="#000000" stroke-width="1" stroke-opacity="0"></use></g></g><g><use xlink:href="#a4CKn1AkXS" opacity="1" fill="#f75959" fill-opacity="0.3"></use><g><use xlink:href="#a4CKn1AkXS" opacity="1" fill-opacity="0" stroke="#000000" stroke-width="1" stroke-opacity="0"></use></g></g><g><use xlink:href="#b1njoEoLmS" opacity="1" fill="#f4f067" fill-opacity="1"></use><g><use xlink:href="#b1njoEoLmS" opacity="1" fill-opacity="0" stroke="#000000" stroke-width="1" stroke-opacity="0"></use></g></g><g><use xlink:href="#a2wl1v4GW" opacity="1" fill="#000000" fill-opacity="1"></use><g><use xlink:href="#a2wl1v4GW" opacity="1" fill-opacity="0" stroke="#000000" stroke-width="1" stroke-opacity="0"></use></g></g></g></svg>