<?xml version="1.0" encoding="UTF-8" standalone="no"?>
<!DOCTYPE svg PUBLIC "-//W3C//DTD SVG 1.1//EN" "http://www.w3.org/Graphics/SVG/1.1/DTD/svg11.dtd">
<svg version="1.1" xmlns="http://www.w3.org/2000/svg" xmlns:xlink="http://www.w3.org/1999/xlink" preserveAspectRatio="xMidYMid meet" viewBox="-8.881784197001252e-16 -3.774758283725532e-15 488.5529534428385 272.7317139294668" width="484.55" height="268.73"><defs><path d="M169.17 210.52C169.52 226.4 165.69 242.71 159.69 253.46C160.12 253.82 160.56 254.19 161.01 254.52C178.1 266.9 188.59 238.01 185.59 209.74C180.12 210.14 174.65 210.4 169.17 210.52Z" id="c57oXtRgby"></path><path d="M432.21 125.09C431.62 124.76 431.09 124.38 430.53 124.03C429.04 122.63 417.15 111.45 415.66 110.05C390.24 84.88 323.39 77.81 260.17 76.8C262.4 70.91 266.12 62.76 272.02 54.6C283.21 39.11 286.65 9.85 279.77 5.54C272.88 1.24 261.7 27.92 241.9 41.69C226.67 52.29 215.01 69.65 210.44 77.09C187.09 77.66 166.3 78.68 151.06 79.38C87.74 82.29 35.22 105.31 35.22 105.31C22.55 110.94 14.33 119.58 9.04 127.79C1.65 139.25 4.78 154.45 16.06 162.1C43.59 180.77 102.98 214.6 167.88 211.15C257.06 206.41 348.07 173.3 376.79 157.07C405.5 140.84 427.01 146.83 427.45 146.92C425.34 173.4 434.28 192.91 460.03 210.91C460.03 210.91 466.45 155.2 448.34 140.34C448.34 140.34 482.13 121.99 481.54 82.81C463.3 84.17 434.01 109.34 432.21 125.09Z" id="cea2JQFu9"></path><path d="M235.45 187.47C224.78 193.16 212.21 193.88 200.12 193.68C173.1 193.23 146.07 188.77 120.62 179.67C101.76 172.92 83.87 163.69 65 156.99C46.13 150.29 25.69 146.16 6.07 150.13C12 158.58 20.44 164.93 29.08 170.58C65.04 194.09 107.26 207.93 150.15 210.26C188.24 212.32 226.26 205.5 263.34 196.59C305.82 186.38 347.95 173.26 386.25 152.25C388.84 150.83 378.5 141.34 377.3 140.71C372.8 138.33 366.88 137.7 361.91 136.99C350.25 135.32 338.36 135.36 326.69 136.98C303.36 140.21 280.86 149.76 262.64 164.74C261.19 165.94 259.76 167.18 258.36 168.44C255.61 170.93 252.96 173.55 250.25 176.1C245.68 180.41 240.97 184.52 235.45 187.47Z" id="eTdo3QOg8"></path><path d="M182.8 132.05C182.8 142.17 165.54 150.38 144.24 150.38C122.94 150.38 105.67 142.17 105.67 132.05C105.67 121.92 122.94 113.71 144.24 113.71C165.54 113.71 182.8 121.92 182.8 132.05Z" id="f3XGXP5T7E"></path><path d="M120.56 167.33C120.56 167.33 112.82 238.76 135.19 261.13C135.19 261.13 179.94 218.96 163.59 183.68C154.99 180.41 129.17 170.6 120.56 167.33Z" id="ibQ8VmGjF"></path><path d="M305.01 181.24C302.9 181.9 301.72 184.14 302.38 186.24C302.91 187.96 304.49 189.06 306.2 189.06C306.59 189.06 306.99 189 307.38 188.88C317.92 185.61 328.16 182.14 337.81 178.56C339.88 177.79 340.94 175.48 340.17 173.42C339.4 171.34 337.1 170.29 335.03 171.06C325.52 174.58 315.42 178.01 305.01 181.24Z" id="a8GMUzyPFe"></path><path d="M484.24 79.86C483.43 79.11 482.38 78.73 481.25 78.82C463.35 80.15 437.31 101.01 430.06 118.1C428.91 117.01 419.64 108.29 418.48 107.2C396.96 85.91 347.09 74.68 266.11 72.92C268.22 68.22 271.2 62.57 275.27 56.94C284.79 43.76 288.95 21.93 286.72 10.58C285.92 6.5 284.3 3.66 281.89 2.16C275.28 -1.97 269.4 5.57 261.96 15.12C256.06 22.68 248.72 32.08 239.62 38.41C224.89 48.66 213.4 64.96 208.2 73.14C188.2 73.66 170.4 74.48 156 75.15C155.49 75.18 151.39 75.36 150.88 75.39C87.55 78.29 34.16 101.42 33.61 101.66C22.01 106.8 12.62 114.87 5.68 125.63C-2.93 139 0.65 156.47 13.83 165.41C35.21 179.92 72.21 201.16 115.73 210.56C117 230.78 121.16 252.75 132.38 263.96C136.2 267.8 140.43 269.73 144.67 269.73C147.74 269.73 150.8 268.72 153.72 266.68C156.28 264.9 158.64 262.26 160.82 259.11C163.53 260.65 166.25 261.46 168.88 261.46C172.5 261.46 175.95 260 178.96 257.09C186.92 249.4 191.07 231.64 189.94 213.42C230.75 209.28 268.27 200.28 294.12 192.85C296.24 192.24 297.47 190.02 296.86 187.9C296.25 185.78 294.03 184.54 291.91 185.16C263.02 193.46 219.37 203.76 173.04 206.8C172.48 197.99 170.67 189.42 167.23 182C166.3 180 163.92 179.13 161.92 180.06C159.92 180.98 159.04 183.36 159.97 185.37C171.87 211.04 161.76 251.31 149.14 260.12C146.59 261.9 143.02 263.3 138.03 258.31C117.27 237.55 124.47 168.46 124.55 167.76C124.79 165.57 123.2 163.6 121 163.36C118.83 163.11 116.83 164.7 116.59 166.9C116.44 168.26 114.84 183.69 115.36 202.29C74.03 192.95 38.81 172.69 18.32 158.79C8.76 152.31 6.17 139.65 12.41 129.96C18.48 120.54 26.7 113.47 36.83 108.98C37.35 108.75 89.38 86.22 151.24 83.38C151.76 83.36 155.86 83.17 156.37 83.14C171.24 82.46 189.75 81.6 210.54 81.09C211.9 81.06 213.14 80.34 213.86 79.18C218.08 72.3 229.48 55.2 244.19 44.97C254.28 37.96 262.03 28.02 268.26 20.03C271.51 15.87 275.88 10.26 277.93 9.22C281.07 13.07 279.41 37.54 268.78 52.26C263.26 59.9 259.58 67.54 257.29 73.2C249.97 73.64 241.27 74.45 240.74 74.5C238.54 74.7 236.93 76.65 237.13 78.85C237.32 80.92 239.07 82.48 241.11 82.48C241.24 82.48 241.36 82.47 241.49 82.46C241.66 82.44 257.88 80.97 264.26 80.9C342.96 82.49 392.99 93.23 412.92 112.96C414.41 114.35 426.3 125.54 427.79 126.94C427.97 127.12 428.18 127.27 428.4 127.41C428.45 127.44 428.85 127.7 428.9 127.74C429.34 128.02 429.77 128.31 430.24 128.57C431.41 129.23 432.83 129.26 434.02 128.65C435.22 128.04 436.03 126.88 436.18 125.54C437.65 112.74 460.98 91.96 477.44 87.57C475.45 120.55 447.66 136.15 446.43 136.82C445.26 137.46 444.49 138.64 444.36 139.96C444.24 141.29 444.78 142.59 445.8 143.43C457.52 153.04 457.91 185.38 456.69 203.44C437.16 187.99 429.56 170.85 431.44 147.24C431.6 145.29 430.26 143.5 428.36 143.02C424.33 142.01 402.83 137.76 374.82 153.58C368.33 157.25 359.02 161.57 347.9 166.07C345.85 166.9 344.86 169.24 345.69 171.28C346.52 173.33 348.85 174.32 350.9 173.49C362.34 168.86 371.97 164.39 378.76 160.55C399.51 148.82 416.23 149.27 423.24 150.22C422.12 176.96 432.87 196.8 457.74 214.19C458.9 215 460.4 215.14 461.68 214.56C462.96 213.98 463.84 212.77 464.01 211.37C464.64 205.87 469.38 160.2 454.59 141.11C464.17 134.44 486.04 115.6 485.54 82.75C485.53 81.65 485.06 80.6 484.24 79.86ZM181.95 214.16C182.88 230.24 179.32 245.59 173.39 251.33C171.6 253.06 169.04 254.59 164.82 252.2C169.74 241.99 172.85 228.44 173.16 214.81C176.1 214.62 179.03 214.4 181.95 214.16Z" id="b4Agm6XzG5"></path></defs><g><g><use xlink:href="#c57oXtRgby" opacity="1" fill="#0089ef" fill-opacity="1"></use><g><use xlink:href="#c57oXtRgby" opacity="1" fill-opacity="0" stroke="#000000" stroke-width="1" stroke-opacity="0"></use></g></g><g><use xlink:href="#cea2JQFu9" opacity="1" fill="#0089ef" fill-opacity="1"></use><g><use xlink:href="#cea2JQFu9" opacity="1" fill-opacity="0" stroke="#000000" stroke-width="1" stroke-opacity="0"></use></g></g><g><use xlink:href="#eTdo3QOg8" opacity="1" fill="#d4fbff" fill-opacity="1"></use><g><use xlink:href="#eTdo3QOg8" opacity="1" fill-opacity="0" stroke="#000000" stroke-width="1" stroke-opacity="0"></use></g></g><g><use xlink:href="#f3XGXP5T7E" opacity="1" fill="#d4fbff" fill-opacity="1"></use><g><use xlink:href="#f3XGXP5T7E" opacity="1" fill-opacity="0" stroke="#000000" stroke-width="6" stroke-opacity="1"></use></g></g><g><use xlink:href="#ibQ8VmGjF" opacity="1" fill="#0089ef" fill-opacity="1"></use><g><use xlink:href="#ibQ8VmGjF" opacity="1" fill-opacity="0" stroke="#000000" stroke-width="1" stroke-opacity="0"></use></g></g><g><use xlink:href="#a8GMUzyPFe" opacity="1" fill="#000000" fill-opacity="1"></use><g><use xlink:href="#a8GMUzyPFe" opacity="1" fill-opacity="0" stroke="#000000" stroke-width="1" stroke-opacity="0"></use></g></g><g><use xlink:href="#b4Agm6XzG5" opacity="1" fill="#000000" fill-opacity="1"></use><g><use xlink:href="#b4Agm6XzG5" opacity="1" fill-opacity="0" stroke="#000000" stroke-width="1" stroke-opacity="0"></use></g></g></g></svg>