<?xml version="1.0" encoding="iso-8859-1"?>
<!-- Generator: Adobe Illustrator 19.0.0, SVG Export Plug-In . SVG Version: 6.00 Build 0)  -->
<svg version="1.1" id="Layer_1" xmlns="http://www.w3.org/2000/svg" xmlns:xlink="http://www.w3.org/1999/xlink" x="0px" y="0px"
	 viewBox="0 0 511.998 511.998" style="enable-background:new 0 0 511.998 511.998;" xml:space="preserve">
<path style="fill:#585661;" d="M357.711,336.088c0,0,86.557-4.977,113.824-7.999c36.078-3.999,32.521-15.998,32.521-15.998
	c0-6.999-23.713-45.996-56.912-63.993c-27.174-14.733-69.785-28.665-113.824-31.997c-36.703-2.778-35.062-54.495-65.042-79.993
	c-11.621-9.883-29.472-12.999-24.391,0c5.082,12.999,29.472,68.994,0,79.993S138.193,231.099,48.76,304.092
	c0,0-30.78-12.141-40.652,0c-2.71,3.333,16.261,23.997,16.261,23.997S8.108,358.753,8.108,376.085
	c0,0.667,33.876-13.999,40.652-39.997c2.861-10.977,84.274-29.849,146.344-15.998c65.72,14.666,105.694,15.998,105.694,15.998"/>
<g>
	<path style="fill:#F0EBE1;" d="M430.883,288.093c-5.082-10.332-25.068-24.998-65.042-23.998c0,0,7.453,17.332,24.391,23.998
		C407.169,294.76,430.883,288.093,430.883,288.093z"/>
	<path style="fill:#F0EBE1;" d="M357.989,335.992l1.603-2.904c0,0,69.254-3.982,91.07-6.399
		c23.099-2.561,25.883-9.208,26.077-11.767c-28.731,1.861-71.021-14.524-100.751-2.928
		C366.314,315.768,366.911,325.706,357.989,335.992z"/>
</g>
<path style="fill:#6B676E;" d="M304.076,320.512c0,0-8.02,58.24-3.278,63.573c4.743,5.334,61.691-40.577,65.042-63.993
	C368.07,304.513,320.075,304.513,304.076,320.512z"/>
<path style="fill:#F0EBE1;" d="M272.706,333.601c-24.624-29.089-63.524-45.087-88.617-45.087c-31.997,0-72.077,17.48-48.079,25.48
	c14.246,4.749,55.358,0.043,68.548,8.138C233.096,328.181,256.28,331.652,272.706,333.601z"/>
<path style="fill:#6B676E;" d="M240.082,248.518c199.982-23.998,264.044,64.865,264.044,64.865l0,0
	c0.061-0.799-0.071-1.293-0.071-1.293c0-6.999-23.714-45.996-56.912-63.995c-27.174-14.73-69.785-28.663-113.823-31.996
	c-36.704-2.777-35.062-54.495-65.042-79.992c-11.621-9.882-29.472-12.999-24.391,0c5.082,12.999,29.472,68.993,0,79.992
	c-29.472,10.998-105.694,14.998-195.127,87.991C81.416,319.67,96.242,265.779,240.082,248.518z"/>
<path d="M511.85,311.04c-0.979-10.218-15.894-29.535-17.644-31.773c-9.114-11.642-24.035-27.719-43.363-38.197
	c-24.944-13.522-68.765-29.271-116.952-32.919c-15.851-1.199-22.573-14.126-32.227-35.116c-6.714-14.599-14.325-31.143-28.19-42.935
	c-9.863-8.388-24.93-14.035-33.424-7.977c-1.875,1.337-7.675,6.512-3.582,16.983c0.289,0.738,0.639,1.613,1.037,2.609
	c4.392,10.979,17.754,44.392,10.761,60.199c-1.466,3.313-3.736,5.448-7.144,6.72c-5.919,2.209-14.498,4.265-24.431,6.643
	c-37.292,8.932-99.296,23.783-169.284,79.729c-10.741-3.574-34.409-9.399-45.306,4.006c-5.296,6.512,0.306,14.709,7.035,23.239
	c2.037,2.582,4.125,5.059,5.825,7.023c-4.872,9.946-14.654,31.779-14.654,46.725c0,4.025,3.02,7.443,7.011,7.955
	c0.225,0.028,0.461,0.043,0.708,0.043c7.179-0.001,23.135-11.8,23.301-11.923c9.074-6.745,20.651-17.85,25.002-32.793
	c3.783-2.98,20.85-9.407,49.351-13.31c0.309-0.042,0.635-0.085,0.953-0.128c0.004,0,0.009-0.001,0.013-0.001
	c18.627-2.486,53.781-5.355,86.782,2.008c55.413,12.365,92.399,15.342,103.583,16.002c-0.595,2.75-1.204,5.661-1.786,8.618
	c-5.562,28.242-3.479,33.392-0.414,36.838c0.917,1.032,3.246,3.104,7.137,3.104c0.82,0,1.709-0.091,2.668-0.305
	c11.055-2.452,32.861-23.189,37.121-27.322c5.316-5.157,12.725-12.774,19.145-20.929c15.212-0.887,86.675-5.127,111.402-7.868
	c19.789-2.193,31.932-7.061,37.123-14.88C512.198,316.906,512.175,313.104,511.85,311.04z M196.911,312.238
	c-17.271-3.855-37.642-5.51-58.905-4.939c9.762-5.319,18.399-9.094,25.718-11.228c0.432-0.104,0.865-0.221,1.298-0.354
	c0.106-0.032,0.212-0.064,0.318-0.097c7.825-2.078,14.057-2.188,18.464-0.235c3.249,1.441,7.071,0.571,9.365-2.142
	c2.294-2.711,2.525-6.61,0.569-9.574c-0.684-1.037-1.863-2.027-3.468-2.885l0.013-0.028c-0.148-0.065-0.303-0.134-0.465-0.205
	c-1.323-0.655-2.904-1.224-4.71-1.665c-2.396-0.62-5.472-1.077-9.414-0.984c-4.572,0.057-9.777,0.802-15.375,2.523
	c-1.667,0.516-1.957-0.122-2.08-0.396c-0.252-0.559-0.064-0.788,0.48-1.122c17.044-10.425,41.694-16.515,62.344,13.679
	c8.47,12.386,18.3,22.114,28.202,29.631C234.481,319.906,216.878,316.694,196.911,312.238z M371.578,327.195
	c0.761-1.658,1.399-3.283,1.87-4.859c0.014-0.046,1.968-4.62,23.284-4.347c13.615,0.168,30.77,2.266,46.92,4.436
	C419.744,324.23,389.227,326.13,371.578,327.195z M495.776,312.045c-9.847,0-25.362-2.119-41.788-4.363
	c-45.88-6.268-89.215-12.187-95.868,10.071c-2.272,7.601-12.675,21.083-27.149,35.185c-9.433,9.19-17.405,15.631-22.828,19.438
	c1.228-10.298,4.77-27.597,8.521-42.369c1.087-4.282-1.502-8.635-5.784-9.723c-4.283-1.087-8.634,1.503-9.722,5.783
	c-0.029,0.115-0.204,0.806-0.487,1.952c-0.284-0.012-0.726-0.033-1.321-0.066c-10.942-0.977-43.197-12.401-65.081-44.4
	c-12.806-18.723-28.683-28.484-47.188-29.012c-15.147-0.424-28.328,5.59-36.71,10.717c-7.422,4.54-10.247,13.518-6.716,21.346
	c0.006,0.014,0.013,0.027,0.019,0.042c-11.004,4.938-24.445,12.437-40.84,23.584c-1.396,0.194-2.792,0.383-4.185,0.596
	c-14.035,2.148-27.171,5.192-36.99,8.567c-12.83,4.413-18.952,8.784-20.473,14.62c-3.062,11.75-13.289,21.096-21.962,27.064
	c3.582-11.403,9.529-23.879,12.397-29.293c1.587-2.993,1.117-6.661-1.174-9.157c-4.968-5.411-9.883-11.495-12.566-15.425
	c6.631-1.76,19.649,0.979,28.112,4.296c2.693,1.063,5.75,0.587,7.993-1.244c68.6-55.99,129.84-70.657,166.429-79.42
	c10.874-2.605,19.462-4.662,26.299-7.213c7.396-2.761,12.992-8.028,16.181-15.236c8.549-19.322-0.96-48.588-10.323-72.078
	c2.978,0.974,6.943,2.923,10.536,5.977c11.172,9.502,17.703,23.702,24.02,37.435c9.591,20.851,19.508,42.412,45.555,44.384
	c45.672,3.457,87.045,18.295,110.534,31.03c28.873,15.652,50.323,48.892,52.578,56.911
	C495.788,312.046,495.782,312.045,495.776,312.045z"/>
<path d="M369.625,256.042c-1.326,0-2.672,0.016-4.042,0.051c-2.654,0.066-5.103,1.445-6.535,3.681s-1.663,5.037-0.614,7.477
	c0.358,0.832,8.992,20.471,28.793,28.264c5.928,2.333,12.988,3.517,20.984,3.517c0,0,0,0,0.001,0c12.99,0,24.259-3.126,24.732-3.26
	c2.288-0.643,4.171-2.271,5.14-4.44s0.922-4.659-0.126-6.79C431.493,271.394,409.717,256.042,369.625,256.042z M408.212,283.032
	c-5.981,0-11.07-0.81-15.126-2.405c-4.823-1.897-8.741-4.943-11.789-8.077c15.816,1.434,26.633,5.697,33.463,10.18
	C412.68,282.915,410.47,283.032,408.212,283.032z"/>
<g>
</g>
<g>
</g>
<g>
</g>
<g>
</g>
<g>
</g>
<g>
</g>
<g>
</g>
<g>
</g>
<g>
</g>
<g>
</g>
<g>
</g>
<g>
</g>
<g>
</g>
<g>
</g>
<g>
</g>
</svg>
