<svg enable-background="new 0 0 256 256" height="512" viewBox="0 0 256 256" width="512" xmlns="http://www.w3.org/2000/svg"><path d="m252.326 73.755c-1.862.631-4.721 1.072-8.224-.095-6.043-2.014-5.384-8.817-14.408-8.572-.517.014-.854-.537-.582-.978.954-1.543 1.961-4.852-.903-10.58-3.443-6.886-4.089-19.367.903-27.215.512-.804-.496-1.712-1.267-1.151-8.398 6.107-22.711 21.09-18.238 50.399.366 2.401.028 4.853-1.025 7.042-4.655 9.679-19.695 35.784-49.341 43.176-1.615.403-3.321.192-4.793-.586-14.854-7.85-10.031-20.798-6.071-27.542 1.039-1.769-.56-3.918-2.546-3.401-13.537 3.52-22.907 14.315-28.364 22.699-1.966 3.02-5.791 4.212-9.136 2.872-16.111-6.455-34.653-15.07-51.759-16.495-8.181-.682-16.056.262-21.634 1.295-4.483.83-9.107.796-13.545-.249-6.364-1.499-11.435.644-14.51 2.639-1.913 1.241-2.293 3.885-.849 5.65l7.099 8.677-6.509-1.183c-2.423-.441-4.567 1.71-4.047 4.117 1.137 5.268 3.281 10.258 6.32 14.707 9.339 13.673 32.423 42.352 69.461 56.385 5.549 10.62 7.469 24.321 27.013 35.047 2.915 1.6 6.542-.149 7.152-3.417 1.046-5.609 2.118-14.404 1.117-23.873 2.989.212 6.037.327 9.15.327 77.584 0 100.627-67.671 97.728-112.287-.109-1.672 1.221-3.073 2.896-3.061 6.737.047 22.53-1.183 29.946-13.046.443-.711-.244-1.568-1.034-1.301z" fill="#52565b"/><path d="m47.708 178.814c.168 11.062-1.652 23.48 10.687 39.397 2.037 2.628 6.061 2.468 7.921-.288 3.369-4.991 8.179-13.225 10.987-22.977-11.141-4.338-21.01-9.984-29.595-16.132z" fill="#52565b"/><g fill="#e3e4e5"><path d="m154.123 199.172c22.487-6.641 38.339-20.417 48.919-36.986-10.069 7.501-18.145.994-14.835-8.051 1.123-3.068 3.19-5.682 4.821-8.513 4.362-7.57 2.358-12.994-1.024-15.098-2.922-1.817-6.724-1.079-9.968.068-16.686 5.9-23.412 19.062-20.981 29.901 1.51 6.729 12.536 20.904-6.932 38.679z"/><path d="m73.909 188.822c-8.07-8.815-4.617-17.017-2.39-20.563-1.875-8.09-4.468-15.783-9.813-21.99-1.661-1.929-3.579-3.676-5.831-4.864-2.268-1.196-4.798-1.79-7.311-2.3-6.359-1.291-12.858-2.133-18.937-4.405-6.078-2.271-11.195-7.006-16.492-13.363l-6.509-1.183c-2.423-.441-4.567 1.71-4.047 4.117 1.137 5.268 3.281 10.258 6.32 14.707 9.3 13.615 32.224 42.11 68.986 56.207-.214-.586-.416-1.178-.612-1.774-.969-1.624-2.059-3.164-3.364-4.589z"/><path d="m82.988 129.776c-6.686-3.4-13.864-5.828-21.241-7.188-1.701-.314-3.052 1.521-2.162 3.059 3.094 5.346.849 8.13 7.656 9.225 14.089 2.268 20.018-2.924 15.747-5.096z"/></g><path d="m154.123 201.672c-.884 0-1.726-.471-2.178-1.272-.572-1.014-.368-2.289.492-3.074 14.863-13.571 10.554-24.556 7.703-31.825-.657-1.674-1.224-3.12-1.524-4.46-2.484-11.075 3.525-26.065 22.587-32.806 5.087-1.799 9.051-1.744 12.122.167 4.584 2.851 6.94 9.667 1.869 18.469-.547.95-1.134 1.866-1.702 2.752-1.165 1.818-2.265 3.536-2.937 5.372-1.106 3.022-.667 5.739 1.147 7.092 1.759 1.312 5.271 1.502 9.846-1.905.968-.721 2.312-.648 3.197.175.883.822 1.054 2.158.404 3.176-12.103 18.954-29.033 31.752-50.318 38.038-.234.068-.473.101-.708.101zm33.684-69.748c-1.365 0-3.002.341-4.937 1.025-16.188 5.725-21.391 18.007-19.375 26.997.216.966.719 2.246 1.3 3.729 2.47 6.297 6.728 17.148-2.281 29.875 13.294-5.547 24.501-14.146 33.462-25.674-3.013.33-5.525-.486-7.263-1.782-3.601-2.685-4.721-7.717-2.854-12.818.86-2.352 2.163-4.385 3.422-6.35.562-.876 1.091-1.704 1.58-2.552 3.404-5.908 2.363-10.146-.178-11.727-.774-.482-1.729-.723-2.876-.723z"/><path d="m50.01 131.909c-.172 0-.347-.018-.521-.055-1.351-.287-2.213-1.614-1.926-2.964.172-.812.018-1.643-.435-2.339-.452-.696-1.149-1.175-1.961-1.347-1.679-.355-3.331.719-3.687 2.396-.287 1.351-1.613 2.217-2.964 1.926-1.351-.287-2.213-1.614-1.926-2.964.928-4.375 5.243-7.177 9.615-6.248 2.119.449 3.935 1.697 5.115 3.513s1.583 3.983 1.133 6.102c-.25 1.175-1.287 1.98-2.443 1.98z"/><path d="m107.699 233.517c-1.212 0-2.419-.306-3.529-.915-16.25-8.918-20.864-19.752-24.935-29.31-2.115-4.966-3.941-9.255-7.17-12.782-9.726-10.625-4.938-21.509-1.047-25.779.93-1.021 2.512-1.095 3.532-.165 1.019.928 1.094 2.504.171 3.524-.347.389-7.989 9.188 1.033 19.043 3.806 4.157 5.883 9.035 8.082 14.198 3.937 9.243 8.007 18.801 22.74 26.887.667.367 1.451.388 2.147.059.711-.336 1.201-.972 1.345-1.743 5.102-27.354-3.625-42.614-9.28-49.276-.894-1.053-.765-2.63.288-3.524 1.053-.893 2.63-.765 3.524.288 6.231 7.339 15.865 24.039 10.384 53.429-.435 2.331-1.975 4.329-4.12 5.345-1.017.481-2.093.721-3.165.721z"/><path d="m107.699 233.517c-1.212 0-2.419-.306-3.529-.915-16.251-8.919-20.867-19.753-24.938-29.312-.887-2.082-1.731-4.064-2.663-5.937-36.443-14.116-59.307-41.699-69.734-56.965-3.234-4.736-5.488-9.981-6.699-15.59-.417-1.931.159-3.938 1.542-5.366 1.36-1.406 3.303-2.058 5.224-1.767l-2.8-3.421c-1.146-1.401-1.644-3.231-1.365-5.02.276-1.769 1.292-3.34 2.788-4.311 3.533-2.291 9.255-4.667 16.444-2.975 4.011.944 8.22 1.019 12.517.224 5.415-1.003 13.678-2.047 22.296-1.328 14.934 1.244 30.974 7.843 45.125 13.665 2.498 1.028 4.954 2.038 7.356 3 2.234.896 4.805.09 6.111-1.915 5.719-8.786 15.537-20.038 29.831-23.754 1.878-.49 3.851.196 5.022 1.745 1.177 1.559 1.298 3.655.308 5.342-2.304 3.923-4.732 9.721-3.216 15.058 1.025 3.608 3.818 6.639 8.299 9.007.931.492 2.004.623 3.021.371 28.278-7.05 42.773-31.604 47.693-41.833.823-1.712 1.102-3.643.807-5.582-4.638-30.393 10.063-46.125 19.239-52.798 1.334-.969 3.106-.855 4.31.276 1.191 1.12 1.412 2.863.537 4.239-4.405 6.926-3.958 18.392-.776 24.756 2.288 4.576 2.404 7.979 1.879 10.306 4.628.613 6.767 3.174 8.539 5.294 1.251 1.498 2.24 2.68 4.028 3.277 2.887.962 5.199.584 6.63.099h.001c1.377-.467 2.846-.033 3.745 1.103.896 1.133.98 2.659.213 3.887-8.116 12.982-25.157 14.262-32.084 14.222-.163.003-.232.063-.284.118-.073.077-.106.171-.099.28 1.641 25.258-4.994 61.198-28.537 86.321-17.803 18.997-41.921 28.629-71.686 28.629-2.12 0-4.268-.053-6.414-.158.56 8.595-.415 16.407-1.395 21.663-.435 2.331-1.975 4.329-4.12 5.345-1.018.48-2.094.72-3.166.72zm-101.708-110.921c-.374 0-.624.211-.722.313-.13.135-.336.422-.247.834 1.074 4.975 3.072 9.626 5.94 13.825 8.197 12.001 31.26 41.43 68.282 55.457.573.217 1.046.637 1.33 1.18 1.196 2.289 2.197 4.638 3.256 7.125 3.938 9.243 8.009 18.801 22.744 26.888.667.367 1.451.388 2.147.059.711-.336 1.201-.972 1.345-1.743 1.029-5.52 2.054-14.018 1.088-23.152-.078-.735.174-1.468.688-2s1.238-.809 1.975-.756c2.992.212 6.011.32 8.973.32 28.327 0 51.218-9.1 68.038-27.048 22.451-23.957 28.77-58.365 27.196-82.577-.097-1.485.433-2.957 1.452-4.037 1.013-1.073 2.438-1.686 3.917-1.686.131 0 .249.002.377.001 5.613 0 17.749-.973 25.035-8.717-1.615.036-3.469-.175-5.495-.851-3.135-1.045-4.808-3.047-6.284-4.814-1.815-2.173-3.113-3.748-7.266-3.631-1.15.039-2.247-.573-2.827-1.58-.575-.999-.556-2.229.051-3.21.51-.824 1.43-3.266-1.012-8.148-2.903-5.806-3.977-15.118-1.828-23.034-7.536 7.564-15.488 21.152-12.067 43.571.448 2.938.019 5.878-1.243 8.502-5.226 10.866-20.655 36.955-50.99 44.519-2.216.55-4.546.266-6.566-.801-5.735-3.031-9.359-7.089-10.772-12.062-1.942-6.836.754-13.786 3.475-18.544-12.489 3.443-21.249 13.571-26.42 21.515-2.604 3.999-7.718 5.608-12.161 3.829-2.416-.968-4.887-1.984-7.399-3.018-13.816-5.684-29.476-12.126-43.638-13.306-8.066-.673-15.856.314-20.971 1.262-4.984.922-9.885.83-14.573-.273-5.473-1.29-9.86.541-12.577 2.303-.417.27-.535.671-.569.886-.035.227-.044.669.295 1.083l7.099 8.677c.663.811.751 1.95.219 2.852-.531.903-1.568 1.379-2.601 1.19l-6.509-1.184c-.063-.014-.126-.019-.185-.019z"/><path d="m77.884 197.685c-.301 0-.604-.054-.895-.166-36.702-14.075-59.708-41.836-70.155-57.131-3.234-4.736-5.488-9.981-6.699-15.59-.417-1.931.159-3.938 1.542-5.366 1.401-1.448 3.419-2.098 5.396-1.738l6.509 1.184c.577.104 1.098.409 1.473.859 5.81 6.972 10.43 10.747 15.447 12.622 4.416 1.65 9.036 2.505 13.927 3.411 1.547.287 3.094.573 4.632.885 2.489.505 5.365 1.16 7.98 2.539 2.308 1.217 4.454 2.998 6.559 5.444 6.041 7.015 8.625 15.592 10.354 23.056.15.648.036 1.33-.318 1.894-2.119 3.375-4.663 10.141 2.117 17.546 1.328 1.451 2.528 3.086 3.667 4.998.094.157.169.323.227.497.188.571.382 1.139.587 1.702.335.92.102 1.952-.597 2.638-.476.467-1.109.716-1.753.716zm-71.893-75.089c-.374 0-.624.211-.722.313-.13.135-.336.422-.247.834 1.074 4.975 3.072 9.626 5.94 13.825 9.396 13.756 29.265 37.917 60.427 52.178-7.813-9.171-4.817-17.795-2.535-21.893-1.59-6.632-3.96-14.05-9.044-19.953-1.689-1.963-3.359-3.364-5.103-4.284-2.03-1.071-4.394-1.605-6.642-2.062-1.511-.307-3.029-.588-4.548-.869-4.887-.905-9.941-1.841-14.767-3.644-5.708-2.133-10.811-6.162-16.952-13.406l-5.622-1.022c-.063-.012-.126-.017-.185-.017z"/><path d="m62.228 222.589c-2.293 0-4.399-1.028-5.809-2.847-11.358-14.651-11.279-26.427-11.209-36.816.009-1.38.019-2.737-.001-4.074-.015-.944.504-1.815 1.34-2.253.835-.438 1.848-.366 2.615.182 9.189 6.581 18.962 11.909 29.046 15.834 1.205.469 1.854 1.779 1.496 3.021-2.872 9.973-7.74 18.384-11.317 23.684-1.327 1.965-3.535 3.186-5.907 3.264-.086.003-.17.005-.254.005zm-12.022-39.009c-.062 9.854.079 20.087 10.165 33.099.467.603 1.178.933 1.946.909.786-.026 1.488-.414 1.927-1.063 3.113-4.611 7.257-11.707 9.995-20.111-8.28-3.397-16.338-7.7-24.033-12.834z"/><path d="m73.816 137.928c-2.159 0-4.504-.191-6.972-.588-5.709-.919-6.851-3.299-7.839-6.561-.358-1.182-.729-2.404-1.583-3.88-.9-1.556-.816-3.434.22-4.903 1.042-1.479 2.793-2.193 4.559-1.867 7.631 1.406 15.007 3.902 21.92 7.418 2.668 1.356 3.03 3.633 2.529 5.17-1.081 3.317-6.034 5.211-12.834 5.211zm-11.616-12.709c.833 1.613 1.247 2.98 1.589 4.11.678 2.237.782 2.581 3.849 3.075 7.3 1.175 11.732.133 13.494-.762-5.999-2.971-12.36-5.129-18.932-6.423zm19.873 6.921h.01z"/></svg>