<svg id="Capa_1" enable-background="new 0 0 509.016 509.016" height="512" viewBox="0 0 509.016 509.016" width="512" xmlns="http://www.w3.org/2000/svg"><g><g><g><path d="m272.505 349.07c29.19-34.51 22.18-84.33-10.3-110.64-6.87-5.57-14.88-10.08-23.93-13.17l-40.08-13.7-125.775-43.029-13.341-51.96 217.283-4.496 82.418 113.137-22.478 123.858-88.412 49.219z" fill="#f7f6f6"/></g><g><g id="XMLID_257_"><path d="m474.435 149.92-8.8-18.7c-15.44-32.82-48.08-53.66-83.77-54.39-2.96-.06-5.8-1.19-7.91-3.26-83.61-82.27-217.39-89.09-309.16-12.65l-9.84 8.19c-34.121 28.419-24.974 82.652 15.636 98.76 1.719.682 3.561 1.015 5.41.978l101.514-2.028h.36c7.01 0 13.42 4 16.5 10.33 1.04 2.15 1.66 4.49 1.8 6.88l1.18 19.21c.17 2.79.45 5.57.84 8.32 3.21 23.03 13.79 44.49 30.29 61.09 5.26 5.29 14.17 3.87 17.58-2.77l16.14-31.45 18.17-35.41c3.38-6.57 12.46-7.58 17.05-1.8 26.5 33.31 30.45 83.61-2.08 121.35l-22.84 26.5-32.94 38.95-15.47-16c-13.91-14.39-33.94-21.13-53.72-18.06l-56.09 8.7c-5.67.88-8.38 7.46-4.98 12.08l33.42 45.4c.88 1.2 2.1 2.1 3.5 2.6l11.46 4.08c3.57 1.27 5.61 5.01 4.74 8.7l-2.45 10.43c-.29 1.25-.26 2.55.1 3.78l13.5 46.28c1.42 4.84 7.06 7.01 11.36 4.35l32.38-20.05c18.37-11.37 29.44-31.53 29.17-53.13l-.12-9.2 63.37-24.15c95.36-36.35 141.12-136.56 118.59-227.05-.98-3.91 2.01-7.7 6.05-7.69l34.22.02c4.73 0 7.85-4.91 5.84-9.19z" fill="#bfddfc"/></g><g><path d="m177.875 166.82c7.01 0 13.42 4 16.5 10.33 1.04 2.15 1.66 4.49 1.8 6.88l1.18 19.21c.17 2.79.45 5.57.84 8.32 3.21 23.03 13.79 44.49 30.29 61.09 5.26 5.29 14.17 3.87 17.58-2.77l12.7-24.746c-14.953-16.177-24.561-36.517-27.592-58.263-.39-2.75-.67-5.53-.84-8.32l-1.18-19.21c-.14-2.39-.76-4.73-1.8-6.88-3.08-6.33-9.49-10.33-16.5-10.33-.12 0-.24 0-.36 0l-90.205 1.802c-17.746.354-34.607-8.338-44.137-23.312-14.824-23.292-12.276-56.162 11.782-76.2l2.33-1.956c-8.78 5.495-17.29 11.645-25.467 18.456l-9.84 8.19c-34.431 28.676-24.806 83.634 16.744 99.186 1.107.414 2.29.591 3.472.567l102.343-2.044z" fill="#9cccfb"/></g><path d="m202.842 101.93-17.561-20.65c-15.046-17.693-41.989-18.78-58.412-2.357-14.008 14.008-8.743 37.823 9.866 44.619l40.712 14.869c14.456 5.279 29.915-4.862 30.829-20.224.353-5.918-1.594-11.742-5.434-16.257z" fill="#f7f6f6"/></g></g><g><path d="m322.495 26.956c-41.162-21.449-87.41-30.364-133.76-25.787-47.451 4.689-91.97 23.357-128.741 53.984l-9.836 8.192c-1.547 1.289-3.09 2.7-4.586 4.195-2.929 2.928-2.93 7.677-.002 10.606 1.465 1.465 3.385 2.198 5.305 2.198 1.919 0 3.838-.732 5.303-2.196 1.176-1.175 2.38-2.278 3.58-3.277l9.836-8.192c34.456-28.699 76.165-46.19 120.617-50.583 43.429-4.291 86.781 4.062 125.353 24.163 3.674 1.914 8.201.488 10.117-3.186 1.913-3.673.488-8.202-3.186-10.117z"/><path d="m481.219 146.725-8.796-18.696c-8.146-17.314-20.942-31.954-37.009-42.335-15.961-10.313-34.425-15.97-53.396-16.359-1.101-.022-2.097-.418-2.802-1.112-8.768-8.627-18.315-16.654-28.38-23.857-3.365-2.41-8.053-1.635-10.464 1.733-2.411 3.369-1.635 8.053 1.733 10.464 9.432 6.75 18.377 14.27 26.59 22.352 3.446 3.391 8.068 5.315 13.015 5.417 33.37.684 62.928 19.874 77.14 50.083l8.09 17.195-32.563-.024c-.004 0-.007 0-.011 0-4.254 0-8.197 1.922-10.819 5.274-2.615 3.344-3.527 7.622-2.502 11.736 19.911 79.957-15.804 164.397-86.853 205.343-3.589 2.068-4.821 6.654-2.753 10.243 1.389 2.409 3.911 3.756 6.505 3.756 1.271 0 2.559-.323 3.738-1.003 76.34-43.995 114.956-134.409 94.312-220.348l32.593.024h.011c4.799 0 9.199-2.418 11.772-6.469 2.578-4.055 2.894-9.07.849-13.417z"/><path d="m115.434 370.076 56.089-8.702c17.348-2.689 34.985 3.239 47.183 15.86l15.463 15.999c1.473 1.524 3.53 2.34 5.642 2.284 2.118-.07 4.108-1.034 5.478-2.653l32.942-38.952s0 0 0-.001l22.796-26.449c16.619-19.281 25.261-42.558 24.991-67.312-.249-22.906-8.318-45.492-22.721-63.597-3.728-4.685-9.516-7.129-15.511-6.535-6.046.6-11.31 4.181-14.08 9.578l-34.315 66.855c-.715 1.394-1.94 1.775-2.607 1.879-.654.101-1.906.11-2.979-.969-17.189-17.302-27.477-40.237-28.966-64.581l-1.175-19.208c-.208-3.386-1.063-6.65-2.545-9.7-4.387-9.04-13.731-14.741-23.757-14.55l-102.717 2.053c-27.108-9.95-36.715-37.591-31.918-58.906.909-4.041-1.63-8.054-5.671-8.963-4.046-.913-8.054 1.63-8.964 5.67-7.406 32.913 11.022 65.939 42.865 76.823l93.773 32.051c.804.275 1.622.405 2.427.405 3.118 0 6.031-1.96 7.096-5.076 1.34-3.919-.752-8.183-4.671-9.522l-53.556-18.305 61.636-1.232c.071-.001.143-.002.215-.002 4.13 0 7.939 2.378 9.748 6.104.621 1.279.979 2.648 1.066 4.067l1.175 19.208c1.712 27.984 13.537 54.348 33.298 74.237 4.208 4.235 10.011 6.139 15.922 5.22 5.848-.908 10.951-4.591 13.651-9.852l34.315-66.856c.624-1.217 1.758-1.455 2.216-1.5.533-.055 1.537 0 2.291.946 19.689 24.75 28.696 65.144 6.484 100.448 1.349-15.348-1.443-31.103-8.594-45.531-1.839-3.711-6.34-5.231-10.051-3.389-3.711 1.839-5.229 6.339-3.389 10.05 12.498 25.216 8.874 55.344-9.232 76.754l-27.587 32.619-9.697-10.035c-15.582-16.123-38.118-23.698-60.269-20.259l-56.089 8.702c-5.275.818-9.64 4.252-11.674 9.188-2.035 4.935-1.36 10.447 1.804 14.745l33.423 45.404c1.771 2.409 4.199 4.213 7.021 5.218l11.417 3.995-2.451 10.427c-.59 2.503-.521 5.132.201 7.603l13.505 46.277c1.337 4.579 4.657 8.184 9.11 9.892 1.773.68 3.613 1.016 5.443 1.016 2.765 0 5.505-.769 7.944-2.279l32.388-20.049c20.481-12.679 33.018-35.517 32.717-59.603l-.049-3.964 57.54-21.931c3.871-1.475 5.812-5.809 4.337-9.679-1.475-3.871-5.808-5.812-9.679-4.337l-62.434 23.796c-2.939 1.121-4.867 3.956-4.828 7.102l.114 9.201c.235 18.856-9.579 36.736-25.613 46.662l-32.389 20.049c-.04.025-.057.035-.121.012-.063-.024-.069-.044-.083-.09l-13.504-46.24 2.452-10.428c1.745-7.416-2.353-14.933-9.53-17.486l-11.428-4.052-33.459-45.459c-.003-.04.033-.127.125-.165z"/><path d="m190.996 76.421c-8.524-10.023-20.953-16.076-34.1-16.607-13.168-.542-26.025 4.501-35.33 13.805-8.398 8.399-11.882 20.338-9.317 31.937s10.757 20.956 21.914 25.031l40.712 14.869c3.444 1.258 6.996 1.878 10.521 1.878 5.831 0 11.589-1.699 16.658-5.024 8.135-5.337 13.132-13.967 13.709-23.678.471-7.886-2.09-15.543-7.208-21.561h.001zm9.795 41.32c-.294 4.933-2.832 9.316-6.964 12.027s-9.166 3.294-13.806 1.598l-40.712-14.869c-6.415-2.343-10.939-7.511-12.414-14.179s.449-13.263 5.277-18.091c6.126-6.125 14.165-9.452 22.765-9.452.449 0 .901.009 1.354.027 9.106.368 17.373 4.394 23.277 11.337l17.561 20.65h.001c2.599 3.057 3.899 6.946 3.661 10.952z"/><path d="m164.643 90.739c-4.143 0-7.5 3.358-7.5 7.5v5.719c0 4.142 3.357 7.5 7.5 7.5s7.5-3.358 7.5-7.5v-5.719c0-4.142-3.357-7.5-7.5-7.5z"/></g></g></svg>